REM DIRINDEX 1\2,1\3,1\4,1\5,1\6,1\7,1\8
REM DIRNAME folder01,folder02,folder03,folder04,folder05,folder06,folder07,folder08
TITLE ""
FILE "43_Ch9_EatingOut_Shopping_Tweets.mp3" MP3
  TRACK 01 AUDIO
    TITLE "0:"
    INDEX 01 00:00:00
  TRACK 02 AUDIO
    TITLE "8:cjc152_2368"
    INDEX 01 00:00:66
  TRACK 03 AUDIO
    TITLE "0:"
    INDEX 01 00:04:46
  TRACK 04 AUDIO
    TITLE "8:cjc152_2369"
    INDEX 01 00:05:30
  TRACK 05 AUDIO
    TITLE "0:"
    INDEX 01 00:07:00
  TRACK 06 AUDIO
    TITLE "4:cjc152_2370"
    INDEX 01 00:07:66
  TRACK 07 AUDIO
    TITLE "0:"
    INDEX 01 00:12:67
  TRACK 08 AUDIO
    TITLE "4:cjc152_2371"
    INDEX 01 00:13:61
  TRACK 09 AUDIO
    TITLE "0:"
    INDEX 01 00:18:58
  TRACK 10 AUDIO
    TITLE "4:cjc152_2372"
    INDEX 01 00:21:00
  TRACK 11 AUDIO
    TITLE "0:"
    INDEX 01 00:24:27
  TRACK 12 AUDIO
    TITLE "4:cjc152_2373"
    INDEX 01 00:25:19
  TRACK 13 AUDIO
    TITLE "0:"
    INDEX 01 00:29:19
  TRACK 14 AUDIO
    TITLE "4:cjc152_2374"
    INDEX 01 00:31:10
  TRACK 15 AUDIO
    TITLE "0:"
    INDEX 01 00:34:49
  TRACK 16 AUDIO
    TITLE "4:cjc152_2375"
    INDEX 01 00:35:41
  TRACK 17 AUDIO
    TITLE "0:"
    INDEX 01 00:41:42
  TRACK 18 AUDIO
    TITLE "4:cjc152_2376"
    INDEX 01 00:43:33
  TRACK 19 AUDIO
    TITLE "0:"
    INDEX 01 00:46:66
  TRACK 20 AUDIO
    TITLE "4:cjc152_2377"
    INDEX 01 00:47:58
  TRACK 21 AUDIO
    TITLE "0:"
    INDEX 01 00:52:10
  TRACK 22 AUDIO
    TITLE "4:cjc152_2378"
    INDEX 01 00:54:01
  TRACK 23 AUDIO
    TITLE "0:"
    INDEX 01 00:57:48
  TRACK 24 AUDIO
    TITLE "4:cjc152_2379"
    INDEX 01 00:58:42
  TRACK 25 AUDIO
    TITLE "0:"
    INDEX 01 01:02:61
  TRACK 26 AUDIO
    TITLE "4:cjc152_2380"
    INDEX 01 01:04:54
  TRACK 27 AUDIO
    TITLE "0:"
    INDEX 01 01:07:37
  TRACK 28 AUDIO
    TITLE "4:cjc152_2381"
    INDEX 01 01:08:29
  TRACK 29 AUDIO
    TITLE "0:"
    INDEX 01 01:10:67
  TRACK 30 AUDIO
    TITLE "4:cjc152_2382"
    INDEX 01 01:12:62
  TRACK 31 AUDIO
    TITLE "0:"
    INDEX 01 01:15:40
  TRACK 32 AUDIO
    TITLE "4:cjc152_2383"
    INDEX 01 01:16:36
  TRACK 33 AUDIO
    TITLE "0:"
    INDEX 01 01:19:38
  TRACK 34 AUDIO
    TITLE "4:cjc152_2384"
    INDEX 01 01:21:31
  TRACK 35 AUDIO
    TITLE "0:"
    INDEX 01 01:24:57
  TRACK 36 AUDIO
    TITLE "4:cjc152_2385"
    INDEX 01 01:25:51
  TRACK 37 AUDIO
    TITLE "0:"
    INDEX 01 01:30:52
  TRACK 38 AUDIO
    TITLE "4:cjc152_2386"
    INDEX 01 01:32:45
  TRACK 39 AUDIO
    TITLE "0:"
    INDEX 01 01:38:10
  TRACK 40 AUDIO
    TITLE "4:cjc152_2387"
    INDEX 01 01:39:14
  TRACK 41 AUDIO
    TITLE "0:"
    INDEX 01 01:44:48
  TRACK 42 AUDIO
    TITLE "4:cjc152_2388"
    INDEX 01 01:46:41
  TRACK 43 AUDIO
    TITLE "0:"
    INDEX 01 01:51:34
  TRACK 44 AUDIO
    TITLE "4:cjc152_2389"
    INDEX 01 01:52:26
  TRACK 45 AUDIO
    TITLE "0:"
    INDEX 01 01:57:68
  TRACK 46 AUDIO
    TITLE "4:cjc152_2390"
    INDEX 01 01:59:61
  TRACK 47 AUDIO
    TITLE "0:"
    INDEX 01 02:02:40
  TRACK 48 AUDIO
    TITLE "4:cjc152_2391"
    INDEX 01 02:03:38
  TRACK 49 AUDIO
    TITLE "0:"
    INDEX 01 02:07:47
  TRACK 50 AUDIO
    TITLE "4:cjc152_2392"
    INDEX 01 02:09:50
  TRACK 51 AUDIO
    TITLE "0:"
    INDEX 01 02:13:71
  TRACK 52 AUDIO
    TITLE "4:cjc152_2393"
    INDEX 01 02:14:65
  TRACK 53 AUDIO
    TITLE "0:"
    INDEX 01 02:20:09
  TRACK 54 AUDIO
    TITLE "4:cjc152_2394"
    INDEX 01 02:21:73
  TRACK 55 AUDIO
    TITLE "0:"
    INDEX 01 02:26:39
  TRACK 56 AUDIO
    TITLE "4:cjc152_2395"
    INDEX 01 02:27:60
  TRACK 57 AUDIO
    TITLE "0:"
    INDEX 01 02:32:39
  TRACK 58 AUDIO
    TITLE "4:cjc152_2396"
    INDEX 01 02:34:32
  TRACK 59 AUDIO
    TITLE "0:"
    INDEX 01 02:37:50
  TRACK 60 AUDIO
    TITLE "4:cjc152_2397"
    INDEX 01 02:38:42
  TRACK 61 AUDIO
    TITLE "0:"
    INDEX 01 02:40:50
  TRACK 62 AUDIO
    TITLE "4:cjc152_2398"
    INDEX 01 02:42:43
  TRACK 63 AUDIO
    TITLE "0:"
    INDEX 01 02:44:62
  TRACK 64 AUDIO
    TITLE "4:cjc152_2399"
    INDEX 01 02:45:56
  TRACK 65 AUDIO
    TITLE "0:"
    INDEX 01 02:50:08
  TRACK 66 AUDIO
    TITLE "4:cjc152_2400"
    INDEX 01 02:52:14
  TRACK 67 AUDIO
    TITLE "0:"
    INDEX 01 02:54:19
  TRACK 68 AUDIO
    TITLE "4:cjc152_2401"
    INDEX 01 02:55:15
  TRACK 69 AUDIO
    TITLE "0:"
    INDEX 01 02:57:55
  TRACK 70 AUDIO
    TITLE "4:cjc152_2402"
    INDEX 01 02:59:48
  TRACK 71 AUDIO
    TITLE "0:"
    INDEX 01 03:03:16
  TRACK 72 AUDIO
    TITLE "4:cjc152_2403"
    INDEX 01 03:04:14
  TRACK 73 AUDIO
    TITLE "0:"
    INDEX 01 03:08:10
  TRACK 74 AUDIO
    TITLE "4:cjc152_2404"
    INDEX 01 03:10:03
  TRACK 75 AUDIO
    TITLE "0:"
    INDEX 01 03:11:53
  TRACK 76 AUDIO
    TITLE "4:cjc152_2405"
    INDEX 01 03:12:47
  TRACK 77 AUDIO
    TITLE "0:"
    INDEX 01 03:14:61
  TRACK 78 AUDIO
    TITLE "4:cjc152_2406"
    INDEX 01 03:16:62
  TRACK 79 AUDIO
    TITLE "0:"
    INDEX 01 03:19:37
  TRACK 80 AUDIO
    TITLE "4:cjc152_2407"
    INDEX 01 03:20:30
  TRACK 81 AUDIO
    TITLE "0:"
    INDEX 01 03:23:29
  TRACK 82 AUDIO
    TITLE "4:cjc152_2408"
    INDEX 01 03:25:22
  TRACK 83 AUDIO
    TITLE "0:"
    INDEX 01 03:30:01
  TRACK 84 AUDIO
    TITLE "4:cjc152_2409"
    INDEX 01 03:30:72
  TRACK 85 AUDIO
    TITLE "0:"
    INDEX 01 03:36:02
  TRACK 86 AUDIO
    TITLE "4:cjc152_2410"
    INDEX 01 03:37:70
  TRACK 87 AUDIO
    TITLE "0:"
    INDEX 01 03:40:37
  TRACK 88 AUDIO
    TITLE "4:cjc152_2411"
    INDEX 01 03:41:33
  TRACK 89 AUDIO
    TITLE "0:"
    INDEX 01 03:44:70
  TRACK 90 AUDIO
    TITLE "4:cjc152_2412"
    INDEX 01 03:46:63
  TRACK 91 AUDIO
    TITLE "0:"
    INDEX 01 03:50:51
  TRACK 92 AUDIO
    TITLE "4:cjc152_2413"
    INDEX 01 03:51:45
  TRACK 93 AUDIO
    TITLE "0:"
    INDEX 01 03:56:48
  TRACK 94 AUDIO
    TITLE "4:cjc152_2414"
    INDEX 01 03:58:41
  TRACK 95 AUDIO
    TITLE "0:"
    INDEX 01 04:01:10
  TRACK 96 AUDIO
    TITLE "4:cjc152_2415"
    INDEX 01 04:02:05
  TRACK 97 AUDIO
    TITLE "0:"
    INDEX 01 04:05:04
  TRACK 98 AUDIO
    TITLE "4:cjc152_2416"
    INDEX 01 04:06:72
  TRACK 99 AUDIO
    TITLE "0:"
    INDEX 01 04:09:09
  TRACK 100 AUDIO
    TITLE "4:cjc152_2417"
    INDEX 01 04:10:03
  TRACK 101 AUDIO
    TITLE "0:"
    INDEX 01 04:12:41
  TRACK 102 AUDIO
    TITLE "4:cjc152_2418"
    INDEX 01 04:14:36
  TRACK 103 AUDIO
    TITLE "0:"
    INDEX 01 04:18:45
  TRACK 104 AUDIO
    TITLE "4:cjc152_2419"
    INDEX 01 04:19:35
  TRACK 105 AUDIO
    TITLE "0:"
    INDEX 01 04:25:57
  TRACK 106 AUDIO
    TITLE "4:cjc152_2420"
    INDEX 01 04:27:44
  TRACK 107 AUDIO
    TITLE "0:"
    INDEX 01 04:29:61
  TRACK 108 AUDIO
    TITLE "4:cjc152_2421"
    INDEX 01 04:30:56
  TRACK 109 AUDIO
    TITLE "0:"
    INDEX 01 04:34:05
  TRACK 110 AUDIO
    TITLE "4:cjc152_2422"
    INDEX 01 04:35:73
  TRACK 111 AUDIO
    TITLE "0:"
    INDEX 01 04:40:51
  TRACK 112 AUDIO
    TITLE "4:cjc152_2423"
    INDEX 01 04:41:43
  TRACK 113 AUDIO
    TITLE "0:"
    INDEX 01 04:45:46
  TRACK 114 AUDIO
    TITLE "4:cjc152_2424"
    INDEX 01 04:47:39
  TRACK 115 AUDIO
    TITLE "0:"
    INDEX 01 04:51:74
  TRACK 116 AUDIO
    TITLE "4:cjc152_2425"
    INDEX 01 04:52:68
  TRACK 117 AUDIO
    TITLE "0:"
    INDEX 01 04:59:19
  TRACK 118 AUDIO
    TITLE "4:cjc152_2426"
    INDEX 01 05:01:12
  TRACK 119 AUDIO
    TITLE "0:"
    INDEX 01 05:05:61
  TRACK 120 AUDIO
    TITLE "4:cjc152_2427"
    INDEX 01 05:06:52
  TRACK 121 AUDIO
    TITLE "0:"
    INDEX 01 05:11:44
  TRACK 122 AUDIO
    TITLE "4:cjc152_2428"
    INDEX 01 05:13:39
  TRACK 123 AUDIO
    TITLE "0:"
    INDEX 01 05:18:32
  TRACK 124 AUDIO
    TITLE "4:cjc152_2429"
    INDEX 01 05:19:26
  TRACK 125 AUDIO
    TITLE "0:"
    INDEX 01 05:24:42
  TRACK 126 AUDIO
    TITLE "4:cjc152_2430"
    INDEX 01 05:26:37
  TRACK 127 AUDIO
    TITLE "0:"
    INDEX 01 05:30:39
  TRACK 128 AUDIO
    TITLE "4:cjc152_2431"
    INDEX 01 05:31:50
  TRACK 129 AUDIO
    TITLE "0:"
    INDEX 01 05:36:20
  TRACK 130 AUDIO
    TITLE "4:cjc152_2432"
    INDEX 01 05:38:13
  TRACK 131 AUDIO
    TITLE "0:"
    INDEX 01 05:40:34
  TRACK 132 AUDIO
    TITLE "4:cjc152_2433"
    INDEX 01 05:41:23
  TRACK 133 AUDIO
    TITLE "0:"
    INDEX 01 05:43:50
  TRACK 134 AUDIO
    TITLE "4:cjc152_2434"
    INDEX 01 05:45:45
  TRACK 135 AUDIO
    TITLE "0:"
    INDEX 01 05:48:27
  TRACK 136 AUDIO
    TITLE "4:cjc152_2435"
    INDEX 01 05:49:19
  TRACK 137 AUDIO
    TITLE "0:"
    INDEX 01 05:52:05
  TRACK 138 AUDIO
    TITLE "4:cjc152_2436"
    INDEX 01 05:53:73
  TRACK 139 AUDIO
    TITLE "0:"
    INDEX 01 05:56:72
  TRACK 140 AUDIO
    TITLE "4:cjc152_2437"
    INDEX 01 05:57:65
  TRACK 141 AUDIO
    TITLE "0:"
    INDEX 01 06:01:32
  TRACK 142 AUDIO
    TITLE "4:cjc152_2438"
    INDEX 01 06:03:40
  TRACK 143 AUDIO
    TITLE "0:"
    INDEX 01 06:06:68
  TRACK 144 AUDIO
    TITLE "4:cjc152_2439"
    INDEX 01 06:07:74
  TRACK 145 AUDIO
    TITLE "0:"
    INDEX 01 06:12:18
  TRACK 146 AUDIO
    TITLE "4:cjc152_2440"
    INDEX 01 06:14:11
  TRACK 147 AUDIO
    TITLE "0:"
    INDEX 01 06:17:29
  TRACK 148 AUDIO
    TITLE "4:cjc152_2441"
    INDEX 01 06:18:22
  TRACK 149 AUDIO
    TITLE "0:"
    INDEX 01 06:22:54
  TRACK 150 AUDIO
    TITLE "4:cjc152_2442"
    INDEX 01 06:24:47
  TRACK 151 AUDIO
    TITLE "0:"
    INDEX 01 06:27:08
  TRACK 152 AUDIO
    TITLE "4:cjc152_2443"
    INDEX 01 06:27:74
  TRACK 153 AUDIO
    TITLE "0:"
    INDEX 01 06:31:31
  TRACK 154 AUDIO
    TITLE "4:cjc152_2444"
    INDEX 01 06:33:40
  TRACK 155 AUDIO
    TITLE "0:"
    INDEX 01 06:36:03
  TRACK 156 AUDIO
    TITLE "4:cjc152_2445"
    INDEX 01 06:36:69
  TRACK 157 AUDIO
    TITLE "0:"
    INDEX 01 06:40:02
  TRACK 158 AUDIO
    TITLE "4:cjc152_2446"
    INDEX 01 06:41:74
  TRACK 159 AUDIO
    TITLE "0:"
    INDEX 01 06:45:23
  TRACK 160 AUDIO
    TITLE "4:cjc152_2447"
    INDEX 01 06:46:15
  TRACK 161 AUDIO
    TITLE "0:"
    INDEX 01 06:50:07
  TRACK 162 AUDIO
    TITLE "4:cjc152_2448"
    INDEX 01 06:51:73
  TRACK 163 AUDIO
    TITLE "0:"
    INDEX 01 06:55:06
  TRACK 164 AUDIO
    TITLE "4:cjc152_2449"
    INDEX 01 06:56:07
  TRACK 165 AUDIO
    TITLE "0:"
    INDEX 01 07:00:19
  TRACK 166 AUDIO
    TITLE "4:cjc152_2450"
    INDEX 01 07:02:12
  TRACK 167 AUDIO
    TITLE "0:"
    INDEX 01 07:07:09
  TRACK 168 AUDIO
    TITLE "4:cjc152_2451"
    INDEX 01 07:08:03
  TRACK 169 AUDIO
    TITLE "0:"
    INDEX 01 07:13:70
  TRACK 170 AUDIO
    TITLE "4:cjc152_2452"
    INDEX 01 07:15:62
  TRACK 171 AUDIO
    TITLE "0:"
    INDEX 01 07:19:71
  TRACK 172 AUDIO
    TITLE "4:cjc152_2453"
    INDEX 01 07:20:74
  TRACK 173 AUDIO
    TITLE "0:"
    INDEX 01 07:26:30
  TRACK 174 AUDIO
    TITLE "4:cjc152_2454"
    INDEX 01 07:28:27
  TRACK 175 AUDIO
    TITLE "0:"
    INDEX 01 07:32:66
  TRACK 176 AUDIO
    TITLE "4:cjc152_2455"
    INDEX 01 07:33:71
  TRACK 177 AUDIO
    TITLE "0:"
    INDEX 01 07:38:41
  TRACK 178 AUDIO
    TITLE "4:cjc152_2456"
    INDEX 01 07:40:38
  TRACK 179 AUDIO
    TITLE "0:"
    INDEX 01 07:44:59
  TRACK 180 AUDIO
    TITLE "4:cjc152_2457"
    INDEX 01 07:45:51
  TRACK 181 AUDIO
    TITLE "0:"
    INDEX 01 07:51:71
  TRACK 182 AUDIO
    TITLE "4:cjc152_2458"
    INDEX 01 07:53:64
  TRACK 183 AUDIO
    TITLE "0:"
    INDEX 01 07:57:36
  TRACK 184 AUDIO
    TITLE "4:cjc152_2459"
    INDEX 01 07:58:28
  TRACK 185 AUDIO
    TITLE "0:"
    INDEX 01 08:03:27
  TRACK 186 AUDIO
    TITLE "4:cjc152_2460"
    INDEX 01 08:05:48
  TRACK 187 AUDIO
    TITLE "0:"
    INDEX 01 08:08:21
  TRACK 188 AUDIO
    TITLE "4:cjc152_2461"
    INDEX 01 08:09:12
  TRACK 189 AUDIO
    TITLE "0:"
    INDEX 01 08:12:11
  TRACK 190 AUDIO
    TITLE "4:cjc152_2462"
    INDEX 01 08:14:04
  TRACK 191 AUDIO
    TITLE "0:"
    INDEX 01 08:18:37
  TRACK 192 AUDIO
    TITLE "4:cjc152_2463"
    INDEX 01 08:19:24
  TRACK 193 AUDIO
    TITLE "0:"
    INDEX 01 08:23:16
  TRACK 194 AUDIO
    TITLE "4:cjc152_2464"
    INDEX 01 08:25:17
  TRACK 195 AUDIO
    TITLE "0:"
    INDEX 01 08:28:41
  TRACK 196 AUDIO
    TITLE "4:cjc152_2465"
    INDEX 01 08:29:36
  TRACK 197 AUDIO
    TITLE "0:"
    INDEX 01 08:34:10
  TRACK 198 AUDIO
    TITLE "4:cjc152_2466"
    INDEX 01 08:36:09
  TRACK 199 AUDIO
    TITLE "0:"
    INDEX 01 08:39:45
  TRACK 200 AUDIO
    TITLE "4:cjc152_2467"
    INDEX 01 08:40:36
  TRACK 201 AUDIO
    TITLE "0:"
    INDEX 01 08:44:03
  TRACK 202 AUDIO
    TITLE "4:cjc152_2468"
    INDEX 01 08:46:04
  TRACK 203 AUDIO
    TITLE "0:"
    INDEX 01 08:49:02
  TRACK 204 AUDIO
    TITLE "4:cjc152_2469"
    INDEX 01 08:50:01
  TRACK 205 AUDIO
    TITLE "0:"
    INDEX 01 08:53:33
  TRACK 206 AUDIO
    TITLE "4:cjc152_2470"
    INDEX 01 08:55:26
  TRACK 207 AUDIO
    TITLE "0:"
    INDEX 01 08:58:26
  TRACK 208 AUDIO
    TITLE "4:cjc152_2471"
    INDEX 01 08:59:20
  TRACK 209 AUDIO
    TITLE "0:"
    INDEX 01 09:02:08
  TRACK 210 AUDIO
    TITLE "4:cjc152_2472"
    INDEX 01 09:04:00
  TRACK 211 AUDIO
    TITLE "0:"
    INDEX 01 09:07:45
  TRACK 212 AUDIO
    TITLE "4:cjc152_2473"
    INDEX 01 09:08:38
  TRACK 213 AUDIO
    TITLE "0:"
    INDEX 01 09:12:68
  TRACK 214 AUDIO
    TITLE "4:cjc152_2474"
    INDEX 01 09:14:59
  TRACK 215 AUDIO
    TITLE "0:"
    INDEX 01 09:17:06
  TRACK 216 AUDIO
    TITLE "4:cjc152_2475"
    INDEX 01 09:18:00
  TRACK 217 AUDIO
    TITLE "0:"
    INDEX 01 09:20:40
  TRACK 218 AUDIO
    TITLE "4:cjc152_2476"
    INDEX 01 09:22:33
  TRACK 219 AUDIO
    TITLE "0:"
    INDEX 01 09:25:55
  TRACK 220 AUDIO
    TITLE "4:cjc152_2477"
    INDEX 01 09:26:46
  TRACK 221 AUDIO
    TITLE "0:"
    INDEX 01 09:29:62
